<svg width="64" height="64" viewBox="0 0 64 64" fill="none" xmlns="http://www.w3.org/2000/svg">
<g clip-path="url(#clip0)">
<path fill-rule="evenodd" clip-rule="evenodd" d="M31.9971 3.72054e-06C14.3287 3.72054e-06 0 14.3269 0 32.0011C0 46.1373 9.16812 58.1322 21.884 62.3656C23.4851 62.6583 24.0685 61.6702 24.0685 60.8216C24.0685 60.0613 24.041 58.0497 24.0253 55.38C15.1244 57.313 13.2463 51.0897 13.2463 51.0897C11.7907 47.3925 9.69264 46.4083 9.69264 46.4083C6.78721 44.4242 9.91266 44.4636 9.91266 44.4636C13.1245 44.6895 14.814 47.7619 14.814 47.7619C17.6683 52.6514 22.3044 51.2389 24.1275 50.4197C24.4182 48.3531 25.2452 46.9427 26.1587 46.1431C19.0533 45.3338 11.5824 42.5895 11.5824 30.3273C11.5824 26.8326 12.8299 23.9782 14.8768 21.7407C14.5468 20.9314 13.4487 17.6781 15.1911 13.2719C15.1911 13.2719 17.8765 12.4114 23.9899 16.5505C26.5418 15.8414 29.2802 15.4878 32.001 15.474C34.7198 15.4878 37.4563 15.8414 40.012 16.5505C46.1215 12.4114 48.803 13.2719 48.803 13.2719C50.5494 17.6781 49.4512 20.9314 49.1232 21.7407C51.1741 23.9782 52.4117 26.8326 52.4117 30.3273C52.4117 42.6209 44.9291 45.3259 37.802 46.1176C38.9493 47.1057 39.9728 49.0584 39.9728 52.0444C39.9728 56.321 39.9335 59.7726 39.9335 60.8216C39.9335 61.6781 40.511 62.674 42.1337 62.3617C54.8398 58.1204 64 46.1353 64 32.0011C64 14.3269 49.6713 3.72054e-06 31.9971 3.72054e-06Z" fill="#1B1817"/>
</g>
<defs>
<clipPath id="clip0">
<rect width="64" height="64" fill="white"/>
</clipPath>
</defs>
</svg>
