<svg width="64" height="64" viewBox="0 0 64 64" fill="none" xmlns="http://www.w3.org/2000/svg">
<path fill-rule="evenodd" clip-rule="evenodd" d="M32 64C49.6731 64 64 49.6731 64 32C64 14.3269 49.6731 0 32 0C14.3269 0 0 14.3269 0 32C0 49.6731 14.3269 64 32 64ZM40.6206 14.635C38.3708 14.5323 37.6961 14.5106 31.9998 14.5106C26.3035 14.5106 25.629 14.5322 23.3794 14.6349C21.2994 14.7297 20.1699 15.0772 19.4181 15.3694C18.4915 15.7114 17.6534 16.2567 16.9652 16.9652C16.2566 17.6534 15.7113 18.4916 15.3692 19.4182C15.0771 20.17 14.7296 21.2995 14.6347 23.3795C14.5321 25.6292 14.5103 26.3037 14.5103 32.0002C14.5103 37.6965 14.5321 38.3713 14.6347 40.6207C14.7295 42.7007 15.0771 43.8303 15.3692 44.5819C15.7112 45.5087 16.2565 46.3467 16.9651 47.0349C17.6532 47.7435 18.4914 48.2888 19.418 48.6308C20.1698 48.9229 21.2993 49.2704 23.3792 49.3654C25.6286 49.4679 26.3031 49.4896 31.9998 49.4896C37.6967 49.4896 38.3713 49.4679 40.6206 49.3654C42.7005 49.2704 43.8301 48.9229 44.5818 48.6308C45.5018 48.2758 46.3373 47.7323 47.0347 47.0349C47.732 46.3377 48.2756 45.5021 48.6304 44.5819C48.9225 43.8301 49.2701 42.7007 49.365 40.6207C49.4676 38.371 49.4895 37.6965 49.4895 32.0002C49.4895 26.3037 49.4676 25.6291 49.365 23.3795C49.2703 21.2995 48.9227 20.17 48.6304 19.4182C48.2886 18.4916 47.7432 17.6535 47.0347 16.9653C46.3465 16.2568 45.5083 15.7115 44.5818 15.3695C43.8299 15.0773 42.7005 14.7299 40.6206 14.635ZM23.2044 10.795C25.4795 10.6912 26.2062 10.6667 31.9998 10.6667C37.7937 10.6667 38.5203 10.6912 40.7955 10.7955C43.0662 10.8987 44.617 11.2593 45.9739 11.7863C47.3976 12.322 48.6871 13.1619 49.7527 14.2474C50.8379 15.3129 51.6777 16.6024 52.2133 18.0259C52.7406 19.3828 53.1013 20.9335 53.205 23.2043C53.3088 25.4793 53.3333 26.2062 53.3333 31.9998C53.3333 37.7936 53.3088 38.5201 53.205 40.7955C53.1013 43.066 52.7406 44.6168 52.2133 45.9739C51.6653 47.391 50.827 48.6779 49.7527 49.7524C48.6783 50.8269 47.3913 51.6649 45.9741 52.213C44.6173 52.7405 43.0666 53.101 40.7958 53.2046C38.5207 53.3084 37.7939 53.333 32.0002 53.333C26.2065 53.333 25.48 53.3084 23.2046 53.2046C20.9339 53.101 19.3833 52.7405 18.0262 52.213C16.6028 51.6774 15.3133 50.8375 14.2477 49.7524C13.1625 48.6868 12.3228 47.3974 11.7871 45.9739C11.2597 44.617 10.8991 43.0662 10.7955 40.7955C10.6912 38.5203 10.6667 37.7937 10.6667 31.9998C10.6667 26.2061 10.6912 25.4793 10.7955 23.2043C10.8987 20.9335 11.2593 19.3828 11.7863 18.0258C12.3221 16.6023 13.1621 15.3128 14.2475 14.2473C15.3131 13.1621 16.6026 12.3223 18.0261 11.7867C19.383 11.2593 20.9337 10.8987 23.2044 10.795ZM32 21.0451C29.8333 21.0451 27.7153 21.6876 25.9138 22.8913C24.1123 24.095 22.7081 25.806 21.879 27.8077C21.0498 29.8094 20.8329 32.0121 21.2556 34.1372C21.6783 36.2622 22.7216 38.2142 24.2537 39.7463C25.7858 41.2783 27.7378 42.3217 29.8628 42.7444C31.9878 43.167 34.1904 42.9501 36.1922 42.121C38.1939 41.2918 39.9049 39.8878 41.1086 38.0862C42.3125 36.2846 42.955 34.1666 42.955 32C42.955 29.0946 41.8007 26.3081 39.7463 24.2537C37.6919 22.1992 34.9054 21.0451 32 21.0451ZM32 39.1109C30.5937 39.1109 29.2187 38.6938 28.0494 37.9125C26.88 37.1312 25.9686 36.0206 25.4303 34.7212C24.8921 33.4219 24.7513 31.992 25.0257 30.6126C25.3001 29.2333 25.9774 27.9662 26.9719 26.9717C27.9664 25.9772 29.2335 25.3 30.6129 25.0256C31.9922 24.7512 33.4221 24.892 34.7214 25.4302C36.0208 25.9685 37.1314 26.8799 37.9127 28.0493C38.694 29.2187 39.1111 30.5936 39.1111 32C39.1111 33.8859 38.3619 35.6946 37.0283 37.0282C35.6948 38.3617 33.8859 39.1109 32 39.1109ZM45.9473 20.6122C45.9473 22.026 44.8011 23.1721 43.3875 23.1721C41.9736 23.1721 40.8275 22.026 40.8275 20.6122C40.8275 19.1984 41.9736 18.0523 43.3875 18.0523C44.8011 18.0523 45.9473 19.1984 45.9473 20.6122Z" fill="black"/>
</svg>
