<svg width="64" height="64" viewBox="0 0 64 64" fill="none" xmlns="http://www.w3.org/2000/svg">
<path fill-rule="evenodd" clip-rule="evenodd" d="M64 32C64 49.6731 49.6731 64 32 64C14.3269 64 0 49.6731 0 32C0 14.3269 14.3269 0 32 0C49.6731 0 64 14.3269 64 32ZM48.096 26.928C48.096 37.12 40.336 48.88 26.144 48.88C21.792 48.88 17.728 47.6 14.352 45.392C14.96 45.472 15.568 45.504 16.192 45.504C19.808 45.504 23.136 44.272 25.776 42.208C22.4 42.144 19.552 39.92 18.576 36.848C19.056 36.944 19.536 36.992 20.032 36.992C20.736 36.992 21.424 36.896 22.064 36.72C18.528 36 15.872 32.896 15.872 29.152V29.056C16.912 29.632 18.096 29.984 19.36 30.016C17.28 28.64 15.92 26.272 15.92 23.6C15.92 22.192 16.304 20.864 16.96 19.728C20.768 24.4 26.448 27.472 32.864 27.792C32.72 27.232 32.656 26.64 32.656 26.032C32.656 21.776 36.112 18.32 40.368 18.32C42.592 18.32 44.592 19.248 46 20.752C47.76 20.4 49.408 19.76 50.896 18.88C50.32 20.688 49.104 22.192 47.504 23.152C49.072 22.96 50.56 22.544 51.936 21.936C50.896 23.488 49.584 24.848 48.08 25.936C48.096 26.256 48.096 26.592 48.096 26.928Z" fill="black"/>
</svg>
