<svg width="64" height="64" viewBox="0 0 64 64" fill="none" xmlns="http://www.w3.org/2000/svg">
<path fill-rule="evenodd" clip-rule="evenodd" d="M32 64C49.6731 64 64 49.6731 64 32C64 14.3269 49.6731 0 32 0C14.3269 0 0 14.3269 0 32C0 49.6731 14.3269 64 32 64ZM52.4545 20.6743C51.9625 18.8468 50.5215 17.4058 48.694 16.9138C45.3552 16 31.9999 16 31.9999 16C31.9999 16 18.6447 16 15.3059 16.8786C13.5134 17.3707 12.0373 18.8468 11.5453 20.6743C10.6667 24.0131 10.6667 30.9368 10.6667 30.9368C10.6667 30.9368 10.6667 37.8956 11.5453 41.1992C12.0373 43.0268 13.4783 44.4678 15.3059 44.9598C18.6798 45.8736 31.9999 45.8736 31.9999 45.8736C31.9999 45.8736 45.3552 45.8736 48.694 44.9949C50.5215 44.5029 51.9625 43.0619 52.4545 41.2344C53.3332 37.8956 53.3332 30.9719 53.3332 30.9719C53.3332 30.9719 53.3683 24.0131 52.4545 20.6743ZM38.8533 30.9367L27.7473 24.5403V37.3332L38.8533 30.9367Z" fill="black"/>
</svg>
